# Blender 4.0.0
# www.blender.org
mtllib straightRoad.mtl
o straight_road
v -7.045297 0.597126 -66.484787
v -4.696865 0.000000 -66.484787
v -9.393729 0.000000 -66.484787
v -9.393729 0.597126 -66.484787
v -7.045297 0.000000 -66.484787
v -0.391952 0.000000 -66.484787
v -7.045296 0.597126 -38.303604
v -4.696864 0.000000 -38.303604
v -9.393727 0.000000 -38.303604
v -9.393727 0.597126 -38.303604
v -7.045296 0.000000 -38.303604
v -0.391950 0.000000 -38.303604
v 7.045296 0.597126 -66.484787
v 4.696864 0.000000 -66.484787
v 9.393727 0.000000 -66.484787
v 9.393727 0.597126 -66.484787
v 7.045296 0.000000 -66.484787
v 0.391950 0.000000 -66.484787
v 7.045297 0.597126 -38.303604
v 4.696865 0.000000 -38.303604
v 9.393729 0.000000 -38.303604
v 9.393729 0.597126 -38.303604
v 7.045297 0.000000 -38.303604
v 0.391952 0.000000 -38.303604
v -2.544409 0.000000 -66.484787
v -2.544407 0.000000 -38.303604
v 2.544407 0.000000 -66.484787
v 2.544409 0.000000 -38.303604
v -7.045296 0.597126 -52.418224
v -4.687401 0.000000 -52.418224
v -9.393728 0.000000 -52.418224
v -9.393728 0.597126 -52.418224
v -7.045296 0.000000 -52.418224
v -0.391951 0.000000 -52.418224
v 7.045296 0.597126 -52.418228
v 4.696865 0.000000 -52.418228
v 9.393728 0.000000 -52.418228
v 9.393728 0.597126 -52.418228
v 7.045296 0.000000 -52.418228
v 0.391951 0.000000 -52.418224
v -2.544408 0.000000 -52.418224
v 2.544408 0.000000 -52.418228
v -9.393728 0.597126 -61.795933
v -9.393728 0.597126 -57.107079
v -9.393728 0.000000 -57.107079
v -9.393728 0.000000 -61.795937
v 7.045296 0.597126 -61.795933
v 7.045296 0.597126 -57.107079
v 7.045296 0.000000 -57.107082
v 7.045296 0.000000 -61.795937
v -7.045297 0.000000 -61.795933
v -7.045296 0.000000 -57.107079
v -7.045296 0.597126 -57.107079
v -7.045297 0.597126 -61.795937
v 0.391951 0.000000 -61.795933
v 0.391951 0.000000 -57.107079
v -2.544408 0.000000 -61.795933
v -2.544408 0.000000 -57.107079
v -0.391951 0.000000 -57.107079
v -0.391952 0.000000 -61.795937
v 9.393728 0.597126 -61.795933
v 9.393728 0.597126 -57.107079
v 4.696864 0.000000 -61.795933
v 4.696865 0.000000 -57.107079
v 2.544408 0.000000 -57.107079
v 2.544407 0.000000 -61.795937
v -4.693711 0.000000 -61.795933
v -4.690556 0.000000 -57.107079
v 9.393728 0.000000 -57.107082
v 9.393728 0.000000 -61.795937
v -7.045296 0.597126 -43.008476
v -7.045296 0.597126 -47.713352
v 7.045296 0.597126 -47.713352
v 7.045297 0.597126 -43.008476
v 7.045297 0.000000 -43.008476
v 7.045296 0.000000 -47.713352
v -4.693710 0.000000 -43.008476
v -4.690556 0.000000 -47.713352
v -7.045296 0.000000 -47.713352
v -7.045296 0.000000 -43.008476
v 0.391952 0.000000 -43.008476
v 0.391951 0.000000 -47.713352
v -0.391951 0.000000 -43.008476
v -0.391951 0.000000 -47.713352
v 9.393728 0.597126 -47.713352
v 9.393728 0.597126 -43.008476
v -2.544407 0.000000 -43.008476
v -2.544408 0.000000 -47.713352
v -9.393728 0.597126 -43.008476
v -9.393728 0.597126 -47.713352
v 4.696865 0.000000 -43.008476
v 4.696865 0.000000 -47.713352
v 2.544408 0.000000 -47.713352
v 2.544408 0.000000 -43.008476
v 9.393728 0.000000 -43.008476
v 9.393728 0.000000 -47.713352
v -9.393728 0.000000 -47.713352
v -9.393728 0.000000 -43.008476
vn -0.0000 1.0000 -0.0000
vn -1.0000 -0.0000 -0.0000
vn 1.0000 -0.0000 -0.0000
vt 0.000000 0.000000
s 0
usemtl intersection_road
f 57/1/1 67/1/1 68/1/1 58/1/1
f 25/1/1 2/1/1 67/1/1 57/1/1
f 63/1/1 64/1/1 49/1/1 50/1/1
f 14/1/1 63/1/1 50/1/1 17/1/1
f 84/1/1 34/1/1 41/1/1 88/1/1
f 93/1/1 92/1/1 36/1/1 42/1/1
f 88/1/1 41/1/1 30/1/1 78/1/1
f 67/1/1 51/1/1 52/1/1 68/1/1
f 82/1/1 93/1/1 42/1/1 40/1/1
f 2/1/1 5/1/1 51/1/1 67/1/1
f 92/1/1 76/1/1 39/1/1 36/1/1
f 78/1/1 30/1/1 33/1/1 79/1/1
f 55/1/1 56/1/1 65/1/1 66/1/1
f 18/1/1 55/1/1 66/1/1 27/1/1
f 84/1/1 82/1/1 40/1/1 34/1/1
f 59/1/1 58/1/1 41/1/1 34/1/1
f 65/1/1 42/1/1 36/1/1 64/1/1
f 56/1/1 40/1/1 42/1/1 65/1/1
f 58/1/1 68/1/1 30/1/1 41/1/1
f 64/1/1 36/1/1 39/1/1 49/1/1
f 68/1/1 52/1/1 33/1/1 30/1/1
f 27/1/1 66/1/1 63/1/1 14/1/1
f 66/1/1 65/1/1 64/1/1 63/1/1
f 6/1/1 25/1/1 57/1/1 60/1/1
f 60/1/1 57/1/1 58/1/1 59/1/1
f 60/1/1 59/1/1 56/1/1 55/1/1
f 12/1/1 24/1/1 81/1/1 83/1/1
f 8/1/1 77/1/1 80/1/1 11/1/1
f 77/1/1 78/1/1 79/1/1 80/1/1
f 20/1/1 23/1/1 75/1/1 91/1/1
f 91/1/1 75/1/1 76/1/1 92/1/1
f 24/1/1 28/1/1 94/1/1 81/1/1
f 81/1/1 94/1/1 93/1/1 82/1/1
f 26/1/1 87/1/1 77/1/1 8/1/1
f 87/1/1 88/1/1 78/1/1 77/1/1
f 28/1/1 20/1/1 91/1/1 94/1/1
f 94/1/1 91/1/1 92/1/1 93/1/1
f 12/1/1 83/1/1 87/1/1 26/1/1
f 83/1/1 84/1/1 88/1/1 87/1/1
usemtl intersection_yellow_stripes
f 59/1/1 34/1/1 40/1/1 56/1/1
f 6/1/1 60/1/1 55/1/1 18/1/1
f 83/1/1 81/1/1 82/1/1 84/1/1
usemtl side_walk
f 73/1/2 35/1/2 39/1/2 76/1/2
f 79/1/3 33/1/3 29/1/3 72/1/3
f 85/1/1 38/1/1 35/1/1 73/1/1
f 72/1/1 29/1/1 32/1/1 90/1/1
f 96/1/3 37/1/3 38/1/3 85/1/3
f 90/1/2 32/1/2 31/1/2 97/1/2
f 45/1/2 31/1/2 32/1/2 44/1/2
f 49/1/2 39/1/2 35/1/2 48/1/2
f 53/1/3 29/1/3 33/1/3 52/1/3
f 48/1/1 35/1/1 38/1/1 62/1/1
f 44/1/1 32/1/1 29/1/1 53/1/1
f 61/1/3 62/1/3 69/1/3 70/1/3
f 16/1/3 61/1/3 70/1/3 15/1/3
f 62/1/3 38/1/3 37/1/3 69/1/3
f 4/1/1 43/1/1 54/1/1 1/1/1
f 43/1/1 44/1/1 53/1/1 54/1/1
f 13/1/1 47/1/1 61/1/1 16/1/1
f 47/1/1 48/1/1 62/1/1 61/1/1
f 1/1/3 54/1/3 51/1/3 5/1/3
f 54/1/3 53/1/3 52/1/3 51/1/3
f 17/1/2 50/1/2 47/1/2 13/1/2
f 50/1/2 49/1/2 48/1/2 47/1/2
f 3/1/2 46/1/2 43/1/2 4/1/2
f 46/1/2 45/1/2 44/1/2 43/1/2
f 10/1/2 89/1/2 98/1/2 9/1/2
f 89/1/2 90/1/2 97/1/2 98/1/2
f 21/1/3 95/1/3 86/1/3 22/1/3
f 95/1/3 96/1/3 85/1/3 86/1/3
f 7/1/1 71/1/1 89/1/1 10/1/1
f 71/1/1 72/1/1 90/1/1 89/1/1
f 22/1/1 86/1/1 74/1/1 19/1/1
f 86/1/1 85/1/1 73/1/1 74/1/1
f 11/1/3 80/1/3 71/1/3 7/1/3
f 80/1/3 79/1/3 72/1/3 71/1/3
f 19/1/2 74/1/2 75/1/2 23/1/2
f 74/1/2 73/1/2 76/1/2 75/1/2
